# Made using Asset Forge (www.assetforge.io) version 1.3 

mtllib model.mtl 

v 0.4034387 0 -0.5
v -0.4034387 0 -0.5
v 0.5 0.09656126 -0.5
v -0.5 0.09656126 -0.5
v -0.5 0.5 -0.5
v 0.5 0.5 -0.5
v 0.5 0.9034387 -0.5
v -0.5 0.9034387 -0.5
v 0.4034387 1 -0.5
v -0.4034387 1 -0.5
v 0.5 0.5 -0.96
v -0.5 0.5 -0.96
v 0.2783727 0.2683822 -1.5
v -0.2783727 0.2683822 -1.5
v 0.5 0.9034387 -0.8
v 0.4034387 1 -0.65
v -0.5 0.9034387 -0.8
v -0.4034387 1 -0.65
v -0.2783727 0.2025 -1.5
v -0.5 0.2982806 -0.96
v 0.2783727 0.2025 -1.5
v 0.5 0.2982806 -0.96
v 0.5 0.7630247 -0.8556868
v 0.5 0.7630247 -0.65
v 0.5 0.5524533 -0.65
v 0.5 0.5524533 -0.9391975
v -0.5 0.5524533 -0.9391975
v -0.5 0.5524533 -0.65
v -0.5 0.7630247 -0.65
v -0.5 0.7630247 -0.8556868
v 0.5 0.09656126 -0.96
v 0.2783727 -2.003707E-32 -1.5
v 0.4034387 0 -0.96
v -0.2783727 -2.003707E-32 -1.5
v -0.4034387 0 -0.96
v -0.5 0.09656126 -0.96
vn 0 0 1
vn 0 0.9190284 -0.3941913
vn 0.7071066 0.7071069 0
vn 0 0.84084 -0.5412837
vn 0 0.84084 -0.5412838
vn -0.7071066 0.7071069 0
vn 0 1 0
vn -0.9251152 0 -0.3796866
vn -0.9251151 0 -0.3796865
vn 0 0 -1
vn 0.9251152 0 -0.3796866
vn 1 0 0
vn 0 0.368657 -0.9295655
vn 0 0.368657 -0.9295655
vn -1 0 0
vn 0 0.3686569 -0.9295655
vn 0 0.3686569 -0.9295655
vn 0.704779 -0.7047791 -0.08107468
vn 0.6978109 -0.6978111 -0.1616156
vn 0.7060738 -0.706074 -0.05402993
vn -0.7060738 -0.706074 -0.05402993
vn -0.6978109 -0.6978111 -0.1616156
vn -0.704779 -0.7047791 -0.08107468
vn 0.9251151 0 -0.3796865
vn 0.7071066 -0.7071069 0
vn 0 -1 0
vn -0.7071066 -0.7071069 0
vt 0.4034387 0
vt -0.4034387 0
vt 0.5 0.09656126
vt -0.5 0.09656126
vt -0.5 0.5
vt 0.5 0.5
vt 0.5 0.9034387
vt -0.5 0.9034387
vt 0.4034387 1
vt -0.4034387 1
vt -0.5 -0.96
vt 0.5 -0.96
vt -0.2783727 -1.5
vt 0.2783727 -1.5
vt -0.5 -0.8
vt -0.5 -0.5
vt -0.4034387 -0.65
vt -0.4034387 -0.5
vt 0.5 -0.8
vt 0.4034387 -0.65
vt 0.5 -0.5
vt 0.4034387 -0.5
vt -1.5 0.2025
vt -1.5 0.2683822
vt -0.96 0.2982806
vt -0.96 0.5
vt 0.2783727 0.2025
vt -0.2783727 0.2025
vt 0.2783727 0.2683822
vt -0.2783727 0.2683822
vt 1.5 0.2683822
vt 1.5 0.2025
vt 0.96 0.5
vt 0.96 0.2982806
vt 0.8556868 0.7630247
vt 0.65 0.7630247
vt 0.8 0.9034387
vt 0.65 0.5524533
vt 0.9391975 0.5524533
vt 0.5 0.5524533
vt -0.5 0.5524533
vt -0.9391975 0.5524533
vt -0.65 0.5524533
vt -0.65 0.7630247
vt -0.8556868 0.7630247
vt -0.8 0.9034387
vt 0.5 0.7630247
vt -0.5 0.7630247
vt -0.5 0.96
vt -0.2783727 1.5
vt -0.4034387 0.96
vt 0.2783727 -2.003707E-32
vt -0.2783727 -2.003707E-32
vt 0.96 0.09656126
vt 0.4034387 0.96
vt 0.2783727 1.5
vt 0.5 0.96
vt 1.5 -2.003707E-32
vt -0.96 0.09656126
vt -0.4034387 0.5
vt -1.5 -2.003707E-32
vt 0.4034387 0.5

usemtl _defaultMat (Instance) (Instance)
usemap _defaultMat (Instance) (Instance)
f 3/3/1 2/2/1 1/1/1
f 2/2/1 3/3/1 4/4/1
f 4/4/1 3/3/1 5/5/1
f 5/5/1 3/3/1 6/6/1
f 5/5/1 6/6/1 7/7/1
f 5/5/1 7/7/1 8/8/1
f 8/8/1 7/7/1 9/9/1
f 8/8/1 9/9/1 10/10/1
f 13/13/2 12/12/2 11/11/2
f 12/12/2 13/13/2 14/14/2
f 16/17/3 7/16/3 15/15/3
f 7/16/3 16/17/3 9/18/3
f 17/19/4 16/17/4 15/15/4
f 16/17/4 17/19/4 18/20/5
f 8/21/6 18/20/6 17/19/6
f 18/20/6 8/21/6 10/22/6
f 18/20/7 9/18/7 16/17/7
f 9/18/7 18/20/7 10/22/7
f 20/25/8 14/24/8 19/23/8
f 14/24/8 20/25/8 12/26/9
f 14/29/10 21/28/10 19/27/10
f 21/28/10 14/29/10 13/30/10
f 11/33/11 21/32/11 13/31/11
f 21/32/11 11/33/11 22/34/11
f 15/37/12 24/36/12 23/35/12
f 24/36/12 15/37/12 7/7/12
f 24/36/12 7/7/12 25/38/12
f 26/39/12 22/34/12 11/33/12
f 22/34/12 26/39/12 6/6/12
f 6/6/12 26/39/12 25/38/12
f 6/6/12 25/38/12 7/7/12
f 27/40/14 11/5/13 12/6/13
f 11/5/13 27/40/14 26/41/14
f 5/5/15 12/26/15 20/25/15
f 12/26/15 5/5/15 27/42/15
f 27/42/15 5/5/15 28/43/15
f 28/43/15 5/5/15 29/44/15
f 29/44/15 17/46/15 30/45/15
f 17/46/15 29/44/15 8/8/15
f 8/8/15 29/44/15 5/5/15
f 17/7/17 23/48/17 30/47/16
f 23/48/17 17/7/17 15/8/17

usemtl blueSteel (Instance) (Instance)
usemap blueSteel (Instance) (Instance)
f 33/51/20 32/50/19 31/49/18
f 19/27/10 32/53/10 34/52/10
f 32/53/10 19/27/10 21/28/10
f 6/6/12 31/54/12 22/34/12
f 31/54/12 6/6/12 3/3/12
f 36/57/23 34/56/22 35/55/21
f 22/34/11 32/58/11 21/32/11
f 32/58/11 22/34/11 31/54/24
f 4/4/15 20/25/15 36/59/15
f 20/25/15 4/4/15 5/5/15
f 3/5/25 33/51/20 31/49/18
f 33/51/20 3/5/25 1/60/25
f 36/59/8 19/23/8 34/61/8
f 19/23/8 36/59/8 20/25/8
f 2/62/26 33/51/26 1/60/26
f 33/51/26 2/62/26 32/50/26
f 32/50/26 2/62/26 34/56/26
f 34/56/26 2/62/26 35/55/26
f 4/6/27 35/55/21 2/62/27
f 35/55/21 4/6/27 36/57/23

usemtl glass (Instance)
usemap glass (Instance)
f 28/43/15 30/45/15 27/42/15
f 30/45/15 28/43/15 29/44/15
f 30/47/16 26/41/14 27/40/14
f 26/41/14 30/47/16 23/48/17
f 23/35/12 25/38/12 26/39/12
f 25/38/12 23/35/12 24/36/12
v 0.4034387 0 0.5
v -0.4034387 0 0.5
v 0.5 0.09656126 0.5
v -0.5 0.09656126 0.5
v -0.5 0.5 0.5
v 0.5 0.5 0.5
v 0.5 0.9034387 0.5
v -0.5 0.9034387 0.5
v 0.4034387 1 0.5
v -0.4034387 1 0.5
vn -0.7071067 -0.7071068 0
vn 0.7071067 -0.7071068 0

usemtl _defaultMat (Instance) (Instance)
usemap _defaultMat (Instance) (Instance)
f 39/3/1 38/2/1 37/1/1
f 38/2/1 39/3/1 40/4/1
f 40/4/1 39/3/1 41/5/1
f 41/5/1 39/3/1 42/6/1
f 41/5/1 42/6/1 43/7/1
f 41/5/1 43/7/1 44/8/1
f 44/8/1 43/7/1 45/9/1
f 44/8/1 45/9/1 46/10/1
f 45/60/3 7/16/3 9/18/3
f 7/16/3 45/60/3 43/5/3
f 43/8/12 6/6/12 7/7/12
f 6/6/12 43/8/12 42/5/12
f 10/22/7 45/60/7 9/18/7
f 45/60/7 10/22/7 46/62/7
f 4/3/10 1/2/10 2/1/10
f 1/2/10 4/3/10 3/4/10
f 3/4/10 4/3/10 5/6/10
f 3/4/10 5/6/10 6/5/10
f 6/5/10 5/6/10 8/7/10
f 6/5/10 8/7/10 7/8/10
f 7/8/10 8/7/10 10/9/10
f 7/8/10 10/9/10 9/10/10
f 44/6/6 10/22/6 8/21/6
f 10/22/6 44/6/6 46/62/6
f 41/6/15 8/8/15 5/5/15
f 8/8/15 41/6/15 44/7/15

usemtl blueSteel (Instance) (Instance)
usemap blueSteel (Instance) (Instance)
f 38/22/26 1/60/26 37/18/26
f 1/60/26 38/22/26 2/62/26
f 40/21/28 2/62/28 38/22/28
f 2/62/28 40/21/28 4/6/28
f 39/16/29 1/60/29 3/5/29
f 1/60/29 39/16/29 37/18/29
f 42/5/12 3/3/12 6/6/12
f 3/3/12 42/5/12 39/4/12
f 40/3/15 5/5/15 4/4/15
f 5/5/15 40/3/15 41/6/15
v 0.5 0.5 0.7254447
v 0.5 0.9034387 0.7254447
v 0.4034387 1 0.7254447
v -0.4034387 1 0.7254447
v -0.5 0.9034387 0.7254447
v -0.5 0.5 0.7254447
v -0.3503764 0.8395392 0.9291918
v 0.3503764 0.8395392 0.9291918
v 0.2017194 0.235 1.5
v -0.2017194 0.235 1.5
v 0.2017194 0.39 1.5
v -0.2017194 0.39 1.5
v 0.4628778 0.8395392 0.8218411
v -0.303336 0.6972889 1.109816
v -0.3802379 0.6972889 1.036435
v 0.3802379 0.6972889 1.036435
v 0.303336 0.6972889 1.109816
v -0.4563004 0.8282174 0.8389208
v -0.5 0.09656126 0.7254447
v -0.4034387 0 0.7254447
v 0.4034387 0 0.7254447
v 0.5 0.09656126 0.7254447
v -0.2017194 0.08 1.5
v 0.2017194 0.08 1.5
vn 0 0.7856177 0.6187122
vn 0 0.7856178 0.6187122
vn 0.5681209 0.5681209 0.59538
vn 0.5681209 0.5681208 0.59538
vn 0.5681208 0.568121 0.5953799
vn -0.5681208 0.5681209 0.59538
vn -0.5681208 0.568121 0.59538
vn 0.5681208 0.568121 0.5953799
vn 0.5681208 0.5681209 0.59538
vn -0.5681208 0.568121 0.5953799
vn -0.9331942 0 0.3593724
vn -0.9331942 0 0.3593724
vn -0.9331942 0 0.3593723
vn 0.9331942 0 0.3593723
vn 0.9331942 0 0.3593723
vn 0.9331942 0 0.3593723
vn 0.9331942 0 0.3593724
vn -0.7015131 -0.7015132 0.1255337
vn -0.7046306 -0.7046306 0.08361477
vn -0.7071068 -0.7071068 0
vn 0 -0.9994121 0.03428652
vn 0 -0.997646 0.06857303
vn 0.7071068 -0.7071068 0
vn 0.7046306 -0.7046306 0.08361477
vn 0.7015131 -0.7015132 0.1255337
vn -0.6848206 -0.6848207 0.2490812
vn 0.6848206 -0.6848207 0.2490813
vn 0 -0.9947084 0.1027385
vt -0.7254447 0.5
vt -0.7254447 0.9034387
vt -0.5 0.7254447
vt -0.4034387 0.7254447
vt 0.4034387 0.7254447
vt 0.5 0.7254447
vt 0.7254447 0.9034387
vt 0.7254447 0.5
vt 0.3503764 0.9291918
vt -0.3503764 0.9291918
vt 0.2017194 0.235
vt -0.2017194 0.235
vt 0.2017194 0.39
vt -0.2017194 0.39
vt 0.4628778 0.8395392
vt 0.3503764 0.8395392
vt -0.303336 0.6972889
vt -0.3802379 0.6972889
vt 0.3802379 0.6972889
vt 0.303336 0.6972889
vt -0.4563004 0.8282174
vt -0.3503764 0.8395392
vt 0.303336 1.109816
vt -0.303336 1.109816
vt 0.2017194 1.5
vt -0.2017194 1.5
vt 1.5 0.39
vt 1.5 0.235
vt 1.036435 0.6972889
vt 0.8389208 0.8282174
vt -1.5 0.235
vt -1.5 0.39
vt -1.036435 0.6972889
vt -0.8218411 0.8395392
vt 0.5 -0.7254447
vt 0.4034387 -0.7254447
vt -0.4034387 -0.7254447
vt -0.5 -0.7254447
vt 0.2017194 -1.5
vt -0.2017194 -1.5
vt 0.7254447 0.09656126
vt 0.2017194 0.08
vt -0.2017194 0.08
vt -0.7254447 0.09656126
vt 1.5 0.08
vt -1.5 0.08

usemtl _defaultMat (Instance) (Instance)
usemap _defaultMat (Instance) (Instance)
f 42/5/12 48/64/12 47/63/12
f 48/64/12 42/5/12 43/8/12
f 43/5/3 49/66/3 48/65/3
f 49/66/3 43/5/3 45/60/3
f 46/62/6 51/68/6 50/67/6
f 51/68/6 46/62/6 44/6/6
f 49/66/7 46/62/7 50/67/7
f 46/62/7 49/66/7 45/60/7
f 44/7/15 52/70/15 51/69/15
f 52/70/15 44/7/15 41/6/15
f 53/71/31 49/66/30 50/67/30
f 49/66/30 53/71/31 54/72/31
f 57/75/1 56/74/1 55/73/1
f 56/74/1 57/75/1 58/76/1
f 48/7/33 54/78/32 59/77/32
f 54/78/32 48/7/33 49/9/34
f 61/80/36 58/76/35 60/79/35
f 63/82/37 57/75/38 62/81/37
f 53/84/35 51/8/35 64/83/35
f 51/8/35 53/84/35 50/10/39
f 40/3/10 37/2/10 38/1/10
f 37/2/10 40/3/10 39/4/10
f 39/4/10 40/3/10 42/5/10
f 42/5/10 40/3/10 41/6/10
f 42/5/10 41/6/10 44/7/10
f 42/5/10 44/7/10 43/8/10
f 43/8/10 44/7/10 46/9/10
f 43/8/10 46/9/10 45/10/10
f 58/87/30 63/86/31 60/85/31
f 63/86/31 58/87/30 57/88/30
f 61/91/41 56/90/41 58/89/40
f 56/90/41 61/91/41 52/70/42
f 52/70/42 61/91/41 64/92/42
f 52/70/42 64/92/42 51/69/42
f 47/63/44 57/94/44 55/93/43
f 57/94/44 47/63/44 62/95/44
f 62/95/44 47/63/44 59/96/45
f 59/96/45 47/63/44 48/64/46

usemtl blueSteel (Instance) (Instance)
usemap blueSteel (Instance) (Instance)
f 40/21/49 66/98/48 65/97/47
f 66/98/48 40/21/49 38/22/49
f 37/18/26 66/98/50 38/22/26
f 66/98/50 37/18/26 67/99/51
f 39/16/52 67/99/53 37/18/52
f 67/99/53 39/16/52 68/100/54
f 66/98/48 69/101/55 65/97/47
f 68/100/54 70/102/56 67/99/53
f 41/6/15 65/103/15 52/70/15
f 65/103/15 41/6/15 40/3/15
f 55/73/1 69/105/1 70/104/1
f 69/105/1 55/73/1 56/74/1
f 39/4/12 47/63/12 68/106/12
f 47/63/12 39/4/12 42/5/12
f 52/70/42 69/107/42 56/90/41
f 69/107/42 52/70/42 65/103/42
f 68/106/44 55/93/43 70/108/44
f 55/93/43 68/106/44 47/63/44
f 67/99/51 69/101/57 66/98/50
f 69/101/57 67/99/51 70/102/57

usemtl glass (Instance) (Instance)
usemap glass (Instance) (Instance)
f 60/85/31 54/72/31 53/71/31
f 54/72/31 60/85/31 63/86/31
f 53/84/35 61/80/36 60/79/35
f 61/80/36 53/84/35 64/83/35
f 59/77/32 63/82/37 62/81/37
f 63/82/37 59/77/32 54/78/32
